<?xml version="1.0" encoding="utf-8"?>
<!-- Generator: Adobe Illustrator 16.0.4, SVG Export Plug-In . SVG Version: 6.00 Build 0)  -->
<!DOCTYPE svg PUBLIC "-//W3C//DTD SVG 1.1//EN" "http://www.w3.org/Graphics/SVG/1.1/DTD/svg11.dtd">
<svg version="1.1" id="Layer_1" xmlns="http://www.w3.org/2000/svg" xmlns:xlink="http://www.w3.org/1999/xlink" x="0px" y="0px"
	 width="602.56px" height="332.695px" viewBox="0 0 602.56 332.695" enable-background="new 0 0 602.56 332.695"
	 xml:space="preserve">
<g>
	<line fill="#231F20" stroke="#231F20" x1="234.167" y1="167.15" x2="276.834" y2="167.15"/>
</g>
<g>
	<line fill="#231F20" stroke="#231F20" x1="234.167" y1="170.15" x2="267.501" y2="170.15"/>
</g>
<g>
	<line fill="#231F20" stroke="#231F20" x1="234.167" y1="173.15" x2="258.168" y2="173.15"/>
</g>
<rect x="225.5" y="139.833" fill="#FFFFFF" stroke="#231F20" width="8.209" height="58.028"/>
<g>
	<line fill="#231F20" stroke="#231F20" x1="205.816" y1="168.15" x2="216.484" y2="168.15"/>
	<polygon fill="#231F20" points="223.544,168.15 213.595,172.215 215.956,168.15 213.595,164.086 	"/>
</g>
<rect x="297.516" y="0.5" fill="#FFFFFF" stroke="#231F20" width="8.211" height="58.028"/>
<g>
	<line fill="#231F20" stroke="#231F20" x1="307.166" y1="28.817" x2="361.168" y2="28.817"/>
	<polygon fill="#231F20" points="368.229,28.817 358.277,32.882 360.639,28.817 358.277,24.753 	"/>
</g>
<g>
	<line fill="#231F20" stroke="#231F20" x1="378.833" y1="28.817" x2="533.168" y2="28.817"/>
	<polygon fill="#231F20" points="540.229,28.817 530.277,32.882 532.639,28.817 530.277,24.753 	"/>
</g>
<rect x="369.85" y="0.5" fill="#FFFFFF" stroke="#231F20" width="8.211" height="58.028"/>
<rect x="297.516" y="67.833" fill="#FFFFFF" stroke="#231F20" width="8.211" height="58.028"/>
<g>
	<line fill="#231F20" stroke="#231F20" x1="307.166" y1="96.151" x2="361.168" y2="96.151"/>
	<polygon fill="#231F20" points="368.229,96.151 358.277,100.216 360.639,96.151 358.277,92.086 	"/>
</g>
<rect x="369.85" y="67.833" fill="#FFFFFF" stroke="#231F20" width="8.211" height="58.028"/>
<g>
	<line fill="#231F20" stroke="#231F20" x1="379.5" y1="96.151" x2="433.502" y2="96.151"/>
	<polygon fill="#231F20" points="440.562,96.151 430.611,100.216 432.973,96.151 430.611,92.086 	"/>
</g>
<rect x="441.85" y="67.833" fill="#FFFFFF" stroke="#231F20" width="8.211" height="58.028"/>
<g>
	<line fill="#231F20" stroke="#231F20" x1="450.834" y1="96.151" x2="504.835" y2="96.151"/>
	<polygon fill="#231F20" points="511.896,96.151 501.944,100.216 504.306,96.151 501.944,92.086 	"/>
</g>
<g>
	<line fill="#231F20" stroke="#231F20" x1="522.167" y1="96.151" x2="532.168" y2="96.151"/>
	<polygon fill="#231F20" points="539.229,96.151 529.277,100.216 531.639,96.151 529.277,92.086 	"/>
</g>
<g>
	<line fill="#231F20" stroke="#231F20" x1="520.167" y1="302.15" x2="533.168" y2="302.15"/>
	<polygon fill="#231F20" points="540.229,302.15 530.277,306.215 532.639,302.15 530.277,298.085 	"/>
</g>
<rect x="513.183" y="67.833" fill="#FFFFFF" stroke="#231F20" width="8.211" height="58.028"/>
<g>
	<line fill="#231F20" stroke="#231F20" x1="540.833" y1="169.151" x2="585.501" y2="169.151"/>
	<polygon fill="#231F20" points="592.562,169.151 582.61,173.216 584.972,169.151 582.61,165.086 	"/>
</g>
<g>
	<path fill="#231F20" d="M551.146,163.504l0.947,0.239c-0.198,0.778-0.556,1.371-1.072,1.78c-0.516,0.409-1.146,0.613-1.892,0.613
		c-0.771,0-1.399-0.157-1.882-0.471c-0.484-0.314-0.852-0.769-1.104-1.365c-0.253-0.596-0.379-1.235-0.379-1.919
		c0-0.746,0.143-1.396,0.428-1.951c0.284-0.555,0.689-0.977,1.215-1.265c0.526-0.288,1.104-0.432,1.736-0.432
		c0.716,0,1.318,0.182,1.807,0.547s0.828,0.877,1.021,1.538l-0.933,0.22c-0.166-0.521-0.407-0.9-0.723-1.138
		s-0.713-0.356-1.191-0.356c-0.55,0-1.01,0.132-1.379,0.396c-0.37,0.264-0.63,0.618-0.779,1.062s-0.225,0.902-0.225,1.375
		c0,0.609,0.089,1.14,0.266,1.594c0.178,0.454,0.454,0.793,0.828,1.018s0.779,0.337,1.216,0.337c0.53,0,0.979-0.153,1.348-0.459
		S551.017,164.106,551.146,163.504z"/>
	<path fill="#231F20" d="M552.821,163.421c0-0.96,0.267-1.671,0.801-2.134c0.446-0.384,0.989-0.576,1.631-0.576
		c0.713,0,1.296,0.233,1.748,0.701s0.679,1.112,0.679,1.936c0,0.667-0.1,1.192-0.301,1.575c-0.199,0.382-0.491,0.68-0.873,0.891
		c-0.383,0.211-0.801,0.317-1.253,0.317c-0.726,0-1.312-0.233-1.761-0.698C553.045,164.968,552.821,164.297,552.821,163.421z
		 M553.725,163.421c0,0.664,0.145,1.161,0.435,1.492s0.654,0.496,1.094,0.496c0.437,0,0.799-0.166,1.089-0.498
		s0.435-0.838,0.435-1.519c0-0.641-0.146-1.127-0.437-1.458c-0.292-0.331-0.654-0.496-1.087-0.496c-0.439,0-0.804,0.165-1.094,0.493
		S553.725,162.757,553.725,163.421z"/>
	<path fill="#231F20" d="M558.71,166.014v-5.186h0.786v0.728c0.163-0.254,0.379-0.458,0.649-0.613s0.578-0.232,0.923-0.232
		c0.384,0,0.699,0.08,0.945,0.239c0.245,0.16,0.419,0.382,0.52,0.669c0.41-0.605,0.944-0.908,1.602-0.908
		c0.515,0,0.91,0.143,1.187,0.427s0.415,0.724,0.415,1.316v3.56h-0.874v-3.267c0-0.352-0.028-0.604-0.085-0.759
		c-0.058-0.155-0.161-0.279-0.311-0.374s-0.325-0.142-0.527-0.142c-0.364,0-0.667,0.121-0.908,0.364s-0.361,0.631-0.361,1.165v3.013
		h-0.879v-3.369c0-0.391-0.071-0.684-0.215-0.879s-0.378-0.293-0.703-0.293c-0.247,0-0.477,0.065-0.686,0.195
		c-0.211,0.13-0.362,0.321-0.457,0.571s-0.142,0.612-0.142,1.084v2.69H558.71z"/>
	<path fill="#231F20" d="M567.04,166.014v-5.186h0.786v0.728c0.163-0.254,0.379-0.458,0.649-0.613s0.578-0.232,0.923-0.232
		c0.384,0,0.699,0.08,0.945,0.239c0.245,0.16,0.419,0.382,0.52,0.669c0.41-0.605,0.944-0.908,1.602-0.908
		c0.515,0,0.91,0.143,1.187,0.427s0.415,0.724,0.415,1.316v3.56h-0.874v-3.267c0-0.352-0.028-0.604-0.085-0.759
		c-0.058-0.155-0.161-0.279-0.311-0.374s-0.325-0.142-0.527-0.142c-0.364,0-0.667,0.121-0.908,0.364S571,162.468,571,163.001v3.013
		h-0.879v-3.369c0-0.391-0.071-0.684-0.215-0.879s-0.378-0.293-0.703-0.293c-0.247,0-0.477,0.065-0.686,0.195
		c-0.211,0.13-0.362,0.321-0.457,0.571s-0.142,0.612-0.142,1.084v2.69H567.04z"/>
	<path fill="#231F20" d="M575.375,159.867v-1.011h0.879v1.011H575.375z M575.375,166.014v-5.186h0.879v5.186H575.375z"/>
	<path fill="#231F20" d="M579.511,165.228l0.127,0.776c-0.247,0.052-0.469,0.078-0.664,0.078c-0.319,0-0.566-0.05-0.742-0.151
		s-0.3-0.233-0.371-0.398s-0.107-0.51-0.107-1.038v-2.983h-0.645v-0.684h0.645v-1.284l0.874-0.527v1.812h0.884v0.684h-0.884v3.032
		c0,0.25,0.016,0.412,0.047,0.483c0.03,0.072,0.081,0.128,0.15,0.171c0.07,0.042,0.171,0.063,0.301,0.063
		C579.223,165.262,579.352,165.251,579.511,165.228z"/>
</g>
<g>
	<path fill="#231F20" d="M550.019,178.502c-0.29,0.322-0.605,0.564-0.947,0.725s-0.711,0.242-1.108,0.242
		c-0.732,0-1.313-0.248-1.743-0.742c-0.349-0.404-0.522-0.854-0.522-1.353c0-0.443,0.143-0.842,0.428-1.199
		c0.284-0.356,0.71-0.67,1.276-0.94c-0.322-0.371-0.537-0.672-0.645-0.903s-0.161-0.454-0.161-0.669c0-0.43,0.168-0.803,0.506-1.121
		c0.336-0.317,0.761-0.476,1.271-0.476c0.488,0,0.888,0.15,1.199,0.449c0.311,0.299,0.466,0.659,0.466,1.079
		c0,0.68-0.451,1.261-1.353,1.743l1.284,1.636c0.146-0.287,0.261-0.619,0.342-0.996l0.913,0.195
		c-0.156,0.625-0.368,1.139-0.635,1.543c0.329,0.436,0.701,0.802,1.118,1.099l-0.591,0.698
		C550.763,179.285,550.396,178.948,550.019,178.502z M549.467,177.809l-1.611-1.997c-0.476,0.283-0.796,0.546-0.962,0.789
		s-0.249,0.482-0.249,0.72c0,0.29,0.115,0.591,0.347,0.903s0.559,0.469,0.981,0.469c0.264,0,0.536-0.082,0.818-0.247
		C549.072,178.282,549.298,178.069,549.467,177.809z M548.231,174.772c0.381-0.225,0.628-0.421,0.739-0.591
		c0.113-0.169,0.169-0.356,0.169-0.562c0-0.244-0.077-0.443-0.231-0.598c-0.155-0.155-0.348-0.232-0.579-0.232
		c-0.237,0-0.436,0.077-0.593,0.229c-0.158,0.153-0.237,0.34-0.237,0.562c0,0.111,0.028,0.227,0.085,0.349
		c0.058,0.122,0.143,0.251,0.257,0.388L548.231,174.772z"/>
	<path fill="#231F20" d="M555.502,179.347v-7.158h3.174c0.638,0,1.123,0.064,1.455,0.193s0.598,0.355,0.796,0.681
		s0.298,0.685,0.298,1.079c0,0.508-0.164,0.936-0.493,1.284s-0.837,0.57-1.523,0.664c0.251,0.121,0.441,0.239,0.571,0.356
		c0.276,0.254,0.539,0.571,0.786,0.952l1.245,1.948h-1.191l-0.947-1.489c-0.276-0.43-0.505-0.758-0.684-0.986
		s-0.34-0.387-0.48-0.479c-0.143-0.091-0.286-0.155-0.433-0.19c-0.107-0.023-0.283-0.034-0.527-0.034h-1.099v3.179H555.502z
		 M556.449,175.348h2.036c0.433,0,0.771-0.045,1.016-0.134s0.43-0.233,0.557-0.43s0.19-0.411,0.19-0.642
		c0-0.338-0.123-0.617-0.369-0.835c-0.245-0.218-0.634-0.327-1.164-0.327h-2.266V175.348z"/>
	<path fill="#231F20" d="M566.146,177.677l0.908,0.112c-0.144,0.531-0.408,0.942-0.796,1.235s-0.882,0.439-1.484,0.439
		c-0.759,0-1.36-0.233-1.804-0.701c-0.445-0.467-0.667-1.122-0.667-1.965c0-0.873,0.225-1.549,0.674-2.031s1.032-0.723,1.748-0.723
		c0.693,0,1.26,0.236,1.699,0.708s0.659,1.136,0.659,1.992c0,0.052-0.002,0.13-0.005,0.234h-3.867
		c0.032,0.57,0.193,1.006,0.483,1.309s0.651,0.454,1.084,0.454c0.322,0,0.598-0.084,0.825-0.254S566.013,178.048,566.146,177.677z
		 M563.261,176.256h2.896c-0.039-0.436-0.149-0.763-0.332-0.981c-0.28-0.338-0.643-0.508-1.089-0.508
		c-0.403,0-0.743,0.135-1.019,0.405C563.442,175.442,563.29,175.804,563.261,176.256z"/>
	<path fill="#231F20" d="M570.077,178.561l0.127,0.776c-0.247,0.052-0.469,0.078-0.664,0.078c-0.319,0-0.566-0.05-0.742-0.151
		s-0.3-0.233-0.371-0.398s-0.107-0.51-0.107-1.038v-2.983h-0.645v-0.684h0.645v-1.284l0.874-0.527v1.812h0.884v0.684h-0.884v3.032
		c0,0.25,0.016,0.412,0.047,0.483c0.03,0.072,0.081,0.128,0.15,0.171c0.07,0.042,0.171,0.063,0.301,0.063
		C569.789,178.595,569.918,178.584,570.077,178.561z"/>
	<path fill="#231F20" d="M570.941,173.2v-1.011h0.879v1.011H570.941z M570.941,179.347v-5.186h0.879v5.186H570.941z"/>
	<path fill="#231F20" d="M573.148,179.347v-5.186h0.791v0.786c0.202-0.368,0.389-0.61,0.559-0.728
		c0.172-0.117,0.359-0.176,0.564-0.176c0.296,0,0.598,0.094,0.903,0.283l-0.303,0.815c-0.215-0.127-0.43-0.19-0.645-0.19
		c-0.192,0-0.364,0.058-0.518,0.173s-0.262,0.276-0.327,0.481c-0.098,0.312-0.146,0.654-0.146,1.025v2.715H573.148z"/>
	<path fill="#231F20" d="M580.038,177.677l0.908,0.112c-0.144,0.531-0.408,0.942-0.796,1.235s-0.882,0.439-1.484,0.439
		c-0.759,0-1.359-0.233-1.805-0.701c-0.443-0.467-0.666-1.122-0.666-1.965c0-0.873,0.225-1.549,0.674-2.031s1.032-0.723,1.748-0.723
		c0.693,0,1.26,0.236,1.699,0.708s0.659,1.136,0.659,1.992c0,0.052-0.002,0.13-0.005,0.234h-3.867
		c0.032,0.57,0.193,1.006,0.483,1.309s0.651,0.454,1.084,0.454c0.322,0,0.598-0.084,0.825-0.254S579.904,178.048,580.038,177.677z
		 M577.152,176.256h2.896c-0.039-0.436-0.149-0.763-0.332-0.981c-0.28-0.338-0.643-0.508-1.089-0.508
		c-0.403,0-0.743,0.135-1.018,0.405C577.334,175.442,577.182,175.804,577.152,176.256z"/>
</g>
<rect x="593.849" y="140.833" fill="#FFFFFF" stroke="#231F20" width="8.211" height="58.028"/>
<rect x="297.516" y="204.833" fill="#FFFFFF" stroke="#231F20" width="8.211" height="58.028"/>
<g>
	<line fill="#231F20" stroke="#231F20" x1="307.166" y1="233.151" x2="361.168" y2="233.151"/>
	<polygon fill="#231F20" points="368.229,233.151 358.277,237.216 360.639,233.151 358.277,229.086 	"/>
</g>
<rect x="369.85" y="204.833" fill="#FFFFFF" stroke="#231F20" width="8.211" height="58.028"/>
<g>
	<line fill="#231F20" stroke="#231F20" x1="379.5" y1="233.151" x2="433.502" y2="233.151"/>
	<polygon fill="#231F20" points="440.562,233.151 430.611,237.216 432.973,233.151 430.611,229.086 	"/>
</g>
<g>
	<line fill="#231F20" stroke="#231F20" x1="450.167" y1="233.151" x2="533.502" y2="233.151"/>
	<polygon fill="#231F20" points="540.562,233.151 530.611,237.216 532.973,233.151 530.611,229.086 	"/>
</g>
<rect x="441.85" y="204.833" fill="#FFFFFF" stroke="#231F20" width="8.211" height="58.028"/>
<g>
	<line fill="#231F20" stroke="#231F20" x1="8.833" y1="168.817" x2="50.168" y2="168.817"/>
	<polygon fill="#231F20" points="57.229,168.817 47.278,172.882 49.639,168.817 47.278,164.753 	"/>
</g>
<g>
	<line fill="#231F20" stroke="#231F20" x1="121.166" y1="140.151" x2="205.168" y2="140.151"/>
</g>
<g>
	<line fill="#231F20" stroke="#231F20" x1="121.166" y1="198.612" x2="205.168" y2="198.612"/>
</g>
<g>
	<path fill="#231F20" d="M19.32,165.681v-7.158h4.829v0.845h-3.882v2.217h3.359v0.845h-3.359v3.252H19.32z"/>
	<path fill="#231F20" d="M28.817,164.011l0.908,0.112c-0.143,0.531-0.409,0.942-0.796,1.235s-0.882,0.439-1.484,0.439
		c-0.758,0-1.36-0.233-1.804-0.701s-0.667-1.122-0.667-1.965c0-0.873,0.225-1.549,0.674-2.031s1.032-0.723,1.748-0.723
		c0.693,0,1.26,0.236,1.699,0.708s0.659,1.136,0.659,1.992c0,0.052-0.001,0.13-0.005,0.234h-3.867
		c0.033,0.57,0.194,1.006,0.483,1.309s0.651,0.454,1.084,0.454c0.322,0,0.597-0.084,0.825-0.254S28.684,164.382,28.817,164.011z
		 M25.932,162.59h2.896c-0.039-0.436-0.15-0.763-0.332-0.981c-0.28-0.338-0.643-0.508-1.089-0.508c-0.404,0-0.743,0.135-1.018,0.405
		S25.961,162.137,25.932,162.59z"/>
	<path fill="#231F20" d="M32.748,164.895l0.127,0.776c-0.248,0.052-0.469,0.078-0.664,0.078c-0.319,0-0.566-0.05-0.742-0.151
		s-0.299-0.233-0.371-0.398s-0.107-0.51-0.107-1.038v-2.983h-0.645v-0.684h0.645v-1.284l0.874-0.527v1.812h0.884v0.684h-0.884v3.032
		c0,0.25,0.016,0.412,0.046,0.483s0.082,0.128,0.151,0.171s0.17,0.063,0.3,0.063C32.46,164.929,32.588,164.917,32.748,164.895z"/>
	<path fill="#231F20" d="M36.991,163.781l0.864,0.112c-0.094,0.596-0.336,1.062-0.725,1.399s-0.867,0.505-1.433,0.505
		c-0.709,0-1.28-0.232-1.711-0.696s-0.647-1.129-0.647-1.995c0-0.56,0.093-1.05,0.278-1.47s0.468-0.735,0.847-0.945
		s0.792-0.315,1.238-0.315c0.563,0,1.024,0.143,1.382,0.427s0.587,0.689,0.688,1.213l-0.854,0.132
		c-0.082-0.348-0.226-0.61-0.432-0.786s-0.457-0.264-0.75-0.264c-0.443,0-0.802,0.159-1.079,0.476s-0.415,0.819-0.415,1.506
		c0,0.697,0.133,1.203,0.4,1.519s0.615,0.474,1.045,0.474c0.345,0,0.633-0.106,0.864-0.317S36.929,164.221,36.991,163.781z"/>
	<path fill="#231F20" d="M38.607,165.681v-7.158h0.879v2.568c0.41-0.475,0.928-0.713,1.553-0.713c0.384,0,0.718,0.076,1.001,0.227
		s0.486,0.36,0.608,0.627s0.183,0.654,0.183,1.162v3.286h-0.879v-3.286c0-0.439-0.095-0.759-0.286-0.959s-0.46-0.3-0.808-0.3
		c-0.26,0-0.505,0.067-0.735,0.203s-0.393,0.318-0.491,0.549s-0.146,0.55-0.146,0.957v2.837H38.607z"/>
</g>
<g>
	<path fill="#231F20" d="M130.689,124.681v-7.158h1.426l1.694,5.068c0.156,0.472,0.27,0.825,0.342,1.06
		c0.082-0.26,0.208-0.643,0.381-1.147l1.714-4.98h1.274v7.158h-0.913v-5.991l-2.08,5.991h-0.854l-2.07-6.094v6.094H130.689z"/>
	<path fill="#231F20" d="M138.941,118.533v-1.011h0.879v1.011H138.941z M138.941,124.681v-5.186h0.879v5.186H138.941z"/>
	<path fill="#231F20" d="M144.542,122.781l0.864,0.112c-0.094,0.596-0.336,1.062-0.725,1.399s-0.867,0.505-1.433,0.505
		c-0.709,0-1.28-0.232-1.711-0.696s-0.647-1.129-0.647-1.995c0-0.56,0.093-1.05,0.278-1.47s0.468-0.735,0.847-0.945
		s0.792-0.315,1.238-0.315c0.563,0,1.024,0.143,1.382,0.427s0.587,0.689,0.688,1.213l-0.854,0.132
		c-0.082-0.348-0.226-0.61-0.432-0.786s-0.457-0.264-0.75-0.264c-0.443,0-0.802,0.159-1.079,0.476s-0.415,0.819-0.415,1.506
		c0,0.697,0.133,1.203,0.4,1.519s0.615,0.474,1.045,0.474c0.345,0,0.633-0.106,0.864-0.317S144.48,123.221,144.542,122.781z"/>
	<path fill="#231F20" d="M146.148,124.681v-5.186h0.791v0.786c0.202-0.368,0.388-0.61,0.559-0.728s0.359-0.176,0.564-0.176
		c0.296,0,0.597,0.094,0.903,0.283l-0.303,0.815c-0.215-0.127-0.43-0.19-0.645-0.19c-0.192,0-0.365,0.058-0.518,0.173
		s-0.262,0.276-0.327,0.481c-0.098,0.312-0.146,0.654-0.146,1.025v2.715H146.148z"/>
	<path fill="#231F20" d="M149.161,122.088c0-0.96,0.267-1.671,0.801-2.134c0.446-0.384,0.99-0.576,1.631-0.576
		c0.713,0,1.295,0.233,1.748,0.701s0.679,1.112,0.679,1.936c0,0.667-0.1,1.192-0.3,1.575s-0.492,0.68-0.874,0.891
		s-0.8,0.317-1.252,0.317c-0.726,0-1.312-0.233-1.76-0.698S149.161,122.963,149.161,122.088z M150.064,122.088
		c0,0.664,0.145,1.161,0.435,1.492s0.654,0.496,1.094,0.496c0.436,0,0.799-0.166,1.089-0.498s0.435-0.838,0.435-1.519
		c0-0.641-0.146-1.127-0.437-1.458s-0.653-0.496-1.086-0.496c-0.439,0-0.804,0.165-1.094,0.493S150.064,121.424,150.064,122.088z"/>
	<path fill="#231F20" d="M154.708,122.532v-0.884h2.7v0.884H154.708z"/>
	<path fill="#231F20" d="M158.204,121.194c0-1.188,0.319-2.118,0.957-2.791s1.461-1.008,2.471-1.008
		c0.661,0,1.256,0.158,1.787,0.474s0.935,0.756,1.213,1.321s0.417,1.205,0.417,1.921c0,0.726-0.146,1.375-0.439,1.948
		s-0.708,1.007-1.245,1.301s-1.117,0.442-1.738,0.442c-0.674,0-1.276-0.163-1.807-0.488s-0.933-0.77-1.206-1.333
		S158.204,121.823,158.204,121.194z M159.181,121.209c0,0.863,0.232,1.542,0.696,2.039s1.046,0.745,1.746,0.745
		c0.713,0,1.3-0.25,1.76-0.752s0.691-1.212,0.691-2.134c0-0.583-0.099-1.091-0.295-1.526s-0.485-0.771-0.864-1.011
		s-0.805-0.359-1.277-0.359c-0.67,0-1.248,0.23-1.731,0.691S159.181,120.131,159.181,121.209z"/>
	<path fill="#231F20" d="M166.158,126.668v-7.173h0.801v0.674c0.189-0.264,0.402-0.461,0.64-0.593s0.526-0.198,0.864-0.198
		c0.443,0,0.833,0.114,1.172,0.342s0.594,0.549,0.767,0.964s0.259,0.87,0.259,1.365c0,0.531-0.095,1.008-0.286,1.433
		s-0.467,0.75-0.83,0.977s-0.745,0.339-1.145,0.339c-0.293,0-0.556-0.062-0.789-0.186s-0.424-0.28-0.574-0.469v2.524H166.158z
		 M166.954,122.117c0,0.667,0.135,1.161,0.405,1.479s0.597,0.479,0.981,0.479c0.391,0,0.725-0.165,1.003-0.496
		s0.417-0.842,0.417-1.536c0-0.661-0.136-1.156-0.408-1.484s-0.597-0.493-0.974-0.493c-0.375,0-0.706,0.175-0.994,0.525
		S166.954,121.45,166.954,122.117z"/>
	<path fill="#231F20" d="M175.27,123.011l0.908,0.112c-0.143,0.531-0.409,0.942-0.796,1.235s-0.882,0.439-1.484,0.439
		c-0.758,0-1.36-0.233-1.804-0.701s-0.667-1.122-0.667-1.965c0-0.873,0.225-1.549,0.674-2.031s1.032-0.723,1.748-0.723
		c0.693,0,1.26,0.236,1.699,0.708s0.659,1.136,0.659,1.992c0,0.052-0.001,0.13-0.005,0.234h-3.867
		c0.033,0.57,0.194,1.006,0.483,1.309s0.651,0.454,1.084,0.454c0.322,0,0.597-0.084,0.825-0.254S175.136,123.382,175.27,123.011z
		 M172.384,121.59h2.896c-0.039-0.436-0.15-0.763-0.332-0.981c-0.28-0.338-0.643-0.508-1.089-0.508
		c-0.404,0-0.743,0.135-1.018,0.405S172.413,121.137,172.384,121.59z"/>
	<path fill="#231F20" d="M177.271,124.681v-5.186h0.791v0.786c0.202-0.368,0.388-0.61,0.559-0.728s0.359-0.176,0.564-0.176
		c0.296,0,0.597,0.094,0.903,0.283l-0.303,0.815c-0.215-0.127-0.43-0.19-0.645-0.19c-0.192,0-0.365,0.058-0.518,0.173
		s-0.262,0.276-0.327,0.481c-0.098,0.312-0.146,0.654-0.146,1.025v2.715H177.271z"/>
	<path fill="#231F20" d="M183.995,124.041c-0.326,0.277-0.639,0.472-0.94,0.586s-0.624,0.171-0.969,0.171
		c-0.57,0-1.007-0.139-1.313-0.417s-0.459-0.634-0.459-1.067c0-0.254,0.058-0.486,0.173-0.696s0.267-0.378,0.454-0.505
		s0.398-0.223,0.632-0.288c0.172-0.045,0.433-0.089,0.781-0.132c0.709-0.084,1.232-0.186,1.567-0.303
		c0.003-0.121,0.005-0.197,0.005-0.229c0-0.358-0.083-0.61-0.249-0.757c-0.225-0.199-0.558-0.298-1.001-0.298
		c-0.414,0-0.719,0.072-0.916,0.217s-0.343,0.401-0.437,0.769l-0.859-0.117c0.078-0.368,0.207-0.665,0.386-0.891
		s0.438-0.4,0.776-0.522s0.731-0.183,1.177-0.183c0.443,0,0.802,0.052,1.079,0.156s0.48,0.235,0.61,0.393s0.221,0.357,0.273,0.598
		c0.029,0.15,0.044,0.42,0.044,0.811v1.172c0,0.817,0.019,1.334,0.056,1.55s0.111,0.424,0.222,0.623h-0.918
		C184.08,124.499,184.021,124.285,183.995,124.041z M183.922,122.078c-0.319,0.13-0.797,0.241-1.436,0.332
		c-0.361,0.052-0.617,0.111-0.767,0.176s-0.265,0.16-0.347,0.286s-0.122,0.265-0.122,0.417c0,0.234,0.089,0.43,0.266,0.586
		s0.437,0.234,0.779,0.234c0.338,0,0.64-0.074,0.903-0.222s0.458-0.351,0.581-0.608c0.094-0.199,0.142-0.492,0.142-0.879V122.078z"
		/>
	<path fill="#231F20" d="M188.092,123.895l0.127,0.776c-0.248,0.052-0.469,0.078-0.664,0.078c-0.319,0-0.566-0.05-0.742-0.151
		s-0.299-0.233-0.371-0.398s-0.107-0.51-0.107-1.038v-2.983h-0.645v-0.684h0.645v-1.284l0.874-0.527v1.812h0.884v0.684h-0.884v3.032
		c0,0.25,0.016,0.412,0.046,0.483s0.082,0.128,0.151,0.171s0.17,0.063,0.3,0.063C187.804,123.929,187.932,123.917,188.092,123.895z"
		/>
	<path fill="#231F20" d="M188.956,118.533v-1.011h0.879v1.011H188.956z M188.956,124.681v-5.186h0.879v5.186H188.956z"/>
	<path fill="#231F20" d="M190.846,122.088c0-0.96,0.267-1.671,0.801-2.134c0.446-0.384,0.99-0.576,1.631-0.576
		c0.713,0,1.295,0.233,1.748,0.701s0.679,1.112,0.679,1.936c0,0.667-0.1,1.192-0.3,1.575s-0.492,0.68-0.874,0.891
		s-0.8,0.317-1.252,0.317c-0.726,0-1.312-0.233-1.76-0.698S190.846,122.963,190.846,122.088z M191.749,122.088
		c0,0.664,0.145,1.161,0.435,1.492s0.654,0.496,1.094,0.496c0.436,0,0.799-0.166,1.089-0.498s0.435-0.838,0.435-1.519
		c0-0.641-0.146-1.127-0.437-1.458s-0.653-0.496-1.086-0.496c-0.439,0-0.804,0.165-1.094,0.493S191.749,121.424,191.749,122.088z"/>
	<path fill="#231F20" d="M196.734,124.681v-5.186h0.791v0.737c0.381-0.57,0.931-0.854,1.65-0.854c0.312,0,0.6,0.056,0.862,0.168
		s0.458,0.26,0.588,0.442s0.221,0.399,0.273,0.649c0.033,0.163,0.049,0.448,0.049,0.854v3.188h-0.879v-3.154
		c0-0.358-0.034-0.626-0.103-0.803s-0.189-0.319-0.364-0.425s-0.378-0.159-0.613-0.159c-0.375,0-0.697,0.119-0.969,0.356
		s-0.408,0.688-0.408,1.353v2.832H196.734z"/>
	<path fill="#231F20" d="M201.944,123.133l0.869-0.137c0.049,0.348,0.185,0.615,0.408,0.801s0.535,0.278,0.935,0.278
		c0.404,0,0.703-0.082,0.898-0.247s0.293-0.357,0.293-0.579c0-0.199-0.086-0.355-0.259-0.469c-0.121-0.078-0.42-0.177-0.898-0.298
		c-0.645-0.163-1.091-0.304-1.34-0.422s-0.438-0.283-0.566-0.493s-0.193-0.442-0.193-0.696c0-0.231,0.053-0.445,0.159-0.642
		s0.25-0.36,0.432-0.491c0.137-0.101,0.323-0.187,0.559-0.256s0.489-0.105,0.759-0.105c0.407,0,0.764,0.059,1.072,0.176
		s0.535,0.276,0.681,0.476s0.248,0.468,0.303,0.803l-0.859,0.117c-0.039-0.267-0.152-0.475-0.339-0.625s-0.452-0.225-0.793-0.225
		c-0.404,0-0.692,0.067-0.864,0.2s-0.259,0.29-0.259,0.469c0,0.114,0.036,0.216,0.107,0.308c0.072,0.094,0.184,0.172,0.337,0.234
		c0.088,0.033,0.347,0.107,0.776,0.225c0.622,0.166,1.056,0.302,1.301,0.408s0.438,0.26,0.579,0.461s0.21,0.453,0.21,0.752
		c0,0.293-0.085,0.569-0.256,0.828s-0.417,0.459-0.74,0.601s-0.687,0.212-1.094,0.212c-0.674,0-1.188-0.14-1.541-0.42
		S202.042,123.683,201.944,123.133z"/>
</g>
<g>
	<path fill="#231F20" d="M155.323,135.347v-7.158h2.686c0.547,0,0.985,0.072,1.316,0.217s0.589,0.368,0.776,0.669
		s0.281,0.616,0.281,0.945c0,0.306-0.083,0.594-0.249,0.864s-0.417,0.488-0.752,0.654c0.433,0.127,0.766,0.343,0.999,0.649
		s0.349,0.667,0.349,1.084c0,0.335-0.071,0.647-0.212,0.935s-0.316,0.51-0.525,0.667s-0.47,0.274-0.784,0.354
		s-0.699,0.12-1.155,0.12H155.323z M156.271,131.197h1.548c0.42,0,0.721-0.028,0.903-0.083c0.241-0.072,0.422-0.19,0.544-0.356
		s0.183-0.375,0.183-0.625c0-0.238-0.057-0.447-0.171-0.627s-0.277-0.304-0.488-0.371s-0.575-0.1-1.089-0.1h-1.431V131.197z
		 M156.271,134.502h1.782c0.306,0,0.521-0.011,0.645-0.034c0.218-0.039,0.4-0.104,0.547-0.195s0.267-0.224,0.361-0.398
		s0.142-0.375,0.142-0.603c0-0.267-0.068-0.499-0.205-0.696s-0.326-0.335-0.569-0.415s-0.592-0.12-1.047-0.12h-1.655V134.502z"/>
	<path fill="#231F20" d="M165.318,135.347v-0.762c-0.404,0.586-0.952,0.879-1.646,0.879c-0.306,0-0.592-0.059-0.857-0.176
		s-0.462-0.265-0.591-0.442s-0.219-0.395-0.271-0.652c-0.036-0.172-0.054-0.446-0.054-0.82v-3.213h0.879v2.876
		c0,0.459,0.018,0.768,0.054,0.928c0.055,0.231,0.172,0.413,0.352,0.544s0.4,0.198,0.664,0.198s0.511-0.067,0.742-0.203
		s0.395-0.319,0.491-0.552s0.144-0.57,0.144-1.013v-2.778h0.879v5.186H165.318z"/>
	<path fill="#231F20" d="M167.691,135.347v-4.502h-0.776v-0.684h0.776v-0.552c0-0.348,0.031-0.607,0.093-0.776
		c0.084-0.228,0.233-0.413,0.447-0.554s0.512-0.212,0.896-0.212c0.248,0,0.521,0.029,0.82,0.088l-0.132,0.767
		c-0.182-0.033-0.355-0.049-0.518-0.049c-0.267,0-0.456,0.057-0.566,0.171s-0.166,0.327-0.166,0.64v0.479h1.011v0.684h-1.011v4.502
		H167.691z"/>
	<path fill="#231F20" d="M170.289,135.347v-4.502h-0.776v-0.684h0.776v-0.552c0-0.348,0.031-0.607,0.093-0.776
		c0.084-0.228,0.233-0.413,0.447-0.554s0.512-0.212,0.896-0.212c0.248,0,0.521,0.029,0.82,0.088l-0.132,0.767
		c-0.182-0.033-0.355-0.049-0.518-0.049c-0.267,0-0.456,0.057-0.566,0.171s-0.166,0.327-0.166,0.64v0.479h1.011v0.684h-1.011v4.502
		H170.289z"/>
	<path fill="#231F20" d="M176.407,133.677l0.908,0.112c-0.143,0.531-0.409,0.942-0.796,1.235s-0.882,0.439-1.484,0.439
		c-0.758,0-1.36-0.233-1.804-0.701s-0.667-1.122-0.667-1.965c0-0.873,0.225-1.549,0.674-2.031s1.032-0.723,1.748-0.723
		c0.693,0,1.26,0.236,1.699,0.708s0.659,1.136,0.659,1.992c0,0.052-0.001,0.13-0.005,0.234h-3.867
		c0.033,0.57,0.194,1.006,0.483,1.309s0.651,0.454,1.084,0.454c0.322,0,0.597-0.084,0.825-0.254S176.274,134.048,176.407,133.677z
		 M173.521,132.256h2.896c-0.039-0.436-0.15-0.763-0.332-0.981c-0.28-0.338-0.643-0.508-1.089-0.508
		c-0.404,0-0.743,0.135-1.018,0.405S173.551,131.804,173.521,132.256z"/>
	<path fill="#231F20" d="M178.409,135.347v-5.186h0.791v0.786c0.202-0.368,0.388-0.61,0.559-0.728s0.359-0.176,0.564-0.176
		c0.296,0,0.597,0.094,0.903,0.283l-0.303,0.815c-0.215-0.127-0.43-0.19-0.645-0.19c-0.192,0-0.365,0.058-0.518,0.173
		s-0.262,0.276-0.327,0.481c-0.098,0.312-0.146,0.654-0.146,1.025v2.715H178.409z"/>
</g>
<rect x="0.5" y="140.5" fill="#FFFFFF" stroke="#231F20" width="8.211" height="58.028"/>
<g>
	<line fill="#231F20" stroke="#231F20" x1="67.5" y1="168.817" x2="121.502" y2="168.817"/>
	<polygon fill="#231F20" points="128.562,168.817 118.611,172.882 120.973,168.817 118.611,164.753 	"/>
</g>
<g>
	<path fill="#231F20" d="M79.041,165.681v-7.158h2.466c0.557,0,0.981,0.034,1.274,0.103c0.41,0.094,0.76,0.265,1.05,0.513
		c0.377,0.319,0.66,0.727,0.847,1.223s0.281,1.063,0.281,1.702c0,0.543-0.063,1.025-0.19,1.445s-0.29,0.768-0.488,1.042
		s-0.416,0.492-0.652,0.649s-0.521,0.277-0.854,0.359s-0.717,0.122-1.15,0.122H79.041z M79.988,164.836h1.528
		c0.472,0,0.842-0.044,1.111-0.132s0.482-0.211,0.642-0.371c0.225-0.225,0.399-0.526,0.525-0.906s0.188-0.839,0.188-1.379
		c0-0.749-0.123-1.324-0.369-1.726s-0.544-0.671-0.896-0.808c-0.254-0.098-0.663-0.146-1.226-0.146h-1.504V164.836z"/>
	<path fill="#231F20" d="M89.7,164.011l0.908,0.112c-0.143,0.531-0.409,0.942-0.796,1.235s-0.882,0.439-1.484,0.439
		c-0.758,0-1.36-0.233-1.804-0.701s-0.667-1.122-0.667-1.965c0-0.873,0.225-1.549,0.674-2.031s1.032-0.723,1.748-0.723
		c0.693,0,1.26,0.236,1.699,0.708s0.659,1.136,0.659,1.992c0,0.052-0.001,0.13-0.005,0.234h-3.867
		c0.033,0.57,0.194,1.006,0.483,1.309s0.651,0.454,1.084,0.454c0.322,0,0.597-0.084,0.825-0.254S89.567,164.382,89.7,164.011z
		 M86.814,162.59h2.896c-0.039-0.436-0.15-0.763-0.332-0.981c-0.28-0.338-0.643-0.508-1.089-0.508c-0.404,0-0.743,0.135-1.018,0.405
		S86.844,162.137,86.814,162.59z"/>
	<path fill="#231F20" d="M95.096,163.781l0.864,0.112c-0.094,0.596-0.336,1.062-0.725,1.399s-0.867,0.505-1.433,0.505
		c-0.709,0-1.28-0.232-1.711-0.696s-0.647-1.129-0.647-1.995c0-0.56,0.093-1.05,0.278-1.47s0.468-0.735,0.847-0.945
		s0.792-0.315,1.238-0.315c0.563,0,1.024,0.143,1.382,0.427s0.587,0.689,0.688,1.213l-0.854,0.132
		c-0.082-0.348-0.226-0.61-0.432-0.786s-0.457-0.264-0.75-0.264c-0.443,0-0.802,0.159-1.079,0.476s-0.415,0.819-0.415,1.506
		c0,0.697,0.133,1.203,0.4,1.519s0.615,0.474,1.045,0.474c0.345,0,0.633-0.106,0.864-0.317S95.034,164.221,95.096,163.781z"/>
	<path fill="#231F20" d="M96.385,163.088c0-0.96,0.267-1.671,0.801-2.134c0.446-0.384,0.99-0.576,1.631-0.576
		c0.713,0,1.295,0.233,1.748,0.701s0.679,1.112,0.679,1.936c0,0.667-0.1,1.192-0.3,1.575s-0.492,0.68-0.874,0.891
		s-0.8,0.317-1.252,0.317c-0.726,0-1.312-0.233-1.76-0.698S96.385,163.963,96.385,163.088z M97.288,163.088
		c0,0.664,0.145,1.161,0.435,1.492s0.654,0.496,1.094,0.496c0.436,0,0.799-0.166,1.089-0.498s0.435-0.838,0.435-1.519
		c0-0.641-0.146-1.127-0.437-1.458s-0.653-0.496-1.086-0.496c-0.439,0-0.804,0.165-1.094,0.493S97.288,162.424,97.288,163.088z"/>
	<path fill="#231F20" d="M105.638,165.681v-0.654c-0.329,0.514-0.812,0.771-1.45,0.771c-0.414,0-0.793-0.114-1.14-0.342
		s-0.615-0.546-0.806-0.955s-0.286-0.878-0.286-1.409c0-0.518,0.086-0.987,0.259-1.409s0.431-0.745,0.776-0.969
		s0.731-0.337,1.157-0.337c0.312,0,0.591,0.066,0.835,0.198s0.443,0.304,0.596,0.515v-2.568h0.874v7.158H105.638z M102.859,163.093
		c0,0.664,0.14,1.161,0.42,1.489s0.61,0.493,0.991,0.493c0.384,0,0.71-0.157,0.979-0.471s0.403-0.793,0.403-1.438
		c0-0.709-0.137-1.23-0.41-1.562s-0.61-0.498-1.011-0.498c-0.391,0-0.717,0.16-0.979,0.479S102.859,162.406,102.859,163.093z"/>
	<path fill="#231F20" d="M111.385,164.011l0.908,0.112c-0.143,0.531-0.409,0.942-0.796,1.235s-0.882,0.439-1.484,0.439
		c-0.758,0-1.36-0.233-1.804-0.701s-0.667-1.122-0.667-1.965c0-0.873,0.225-1.549,0.674-2.031s1.032-0.723,1.748-0.723
		c0.693,0,1.26,0.236,1.699,0.708s0.659,1.136,0.659,1.992c0,0.052-0.001,0.13-0.005,0.234h-3.867
		c0.033,0.57,0.194,1.006,0.483,1.309s0.651,0.454,1.084,0.454c0.322,0,0.597-0.084,0.825-0.254S111.251,164.382,111.385,164.011z
		 M108.499,162.59h2.896c-0.039-0.436-0.15-0.763-0.332-0.981c-0.28-0.338-0.643-0.508-1.089-0.508
		c-0.404,0-0.743,0.135-1.018,0.405S108.528,162.137,108.499,162.59z"/>
</g>
<g>
	<path fill="#231F20" d="M75.774,178.836c-0.29,0.322-0.605,0.564-0.947,0.725s-0.711,0.242-1.108,0.242
		c-0.732,0-1.313-0.248-1.743-0.742c-0.348-0.404-0.522-0.854-0.522-1.353c0-0.443,0.143-0.842,0.427-1.199s0.71-0.67,1.277-0.94
		c-0.322-0.371-0.537-0.672-0.645-0.903s-0.161-0.454-0.161-0.669c0-0.43,0.168-0.803,0.505-1.121s0.761-0.476,1.272-0.476
		c0.488,0,0.888,0.15,1.199,0.449s0.466,0.659,0.466,1.079c0,0.68-0.451,1.261-1.353,1.743l1.284,1.636
		c0.146-0.287,0.26-0.619,0.342-0.996l0.913,0.195c-0.156,0.625-0.368,1.139-0.635,1.543c0.329,0.436,0.702,0.802,1.118,1.099
		l-0.591,0.698C76.518,179.619,76.152,179.282,75.774,178.836z M75.223,178.143l-1.611-1.997c-0.475,0.283-0.796,0.546-0.962,0.789
		s-0.249,0.482-0.249,0.72c0,0.29,0.116,0.591,0.347,0.903s0.558,0.469,0.981,0.469c0.264,0,0.536-0.082,0.818-0.247
		S75.053,178.403,75.223,178.143z M73.987,175.105c0.381-0.225,0.627-0.421,0.74-0.591s0.168-0.356,0.168-0.562
		c0-0.244-0.077-0.443-0.232-0.598s-0.348-0.232-0.579-0.232c-0.238,0-0.436,0.077-0.593,0.229s-0.237,0.34-0.237,0.562
		c0,0.111,0.028,0.227,0.085,0.349s0.143,0.251,0.256,0.388L73.987,175.105z"/>
	<path fill="#231F20" d="M81.258,179.681v-7.158h3.174c0.638,0,1.123,0.064,1.455,0.193s0.597,0.355,0.796,0.681
		s0.298,0.685,0.298,1.079c0,0.508-0.165,0.936-0.493,1.284s-0.836,0.57-1.523,0.664c0.25,0.121,0.441,0.239,0.571,0.356
		c0.277,0.254,0.539,0.571,0.786,0.952l1.245,1.948h-1.191l-0.947-1.489c-0.277-0.43-0.504-0.758-0.684-0.986
		s-0.339-0.387-0.481-0.479s-0.286-0.155-0.432-0.19c-0.107-0.023-0.283-0.034-0.527-0.034h-1.099v3.179H81.258z M82.205,175.682
		h2.036c0.433,0,0.771-0.045,1.016-0.134s0.43-0.233,0.557-0.43s0.19-0.411,0.19-0.642c0-0.338-0.123-0.617-0.369-0.835
		s-0.634-0.327-1.165-0.327h-2.266V175.682z"/>
	<path fill="#231F20" d="M91.902,178.011l0.908,0.112c-0.143,0.531-0.409,0.942-0.796,1.235s-0.882,0.439-1.484,0.439
		c-0.758,0-1.36-0.233-1.804-0.701s-0.667-1.122-0.667-1.965c0-0.873,0.225-1.549,0.674-2.031s1.032-0.723,1.748-0.723
		c0.693,0,1.26,0.236,1.699,0.708s0.659,1.136,0.659,1.992c0,0.052-0.001,0.13-0.005,0.234h-3.867
		c0.033,0.57,0.194,1.006,0.483,1.309s0.651,0.454,1.084,0.454c0.322,0,0.597-0.084,0.825-0.254S91.769,178.382,91.902,178.011z
		 M89.017,176.59h2.896c-0.039-0.436-0.15-0.763-0.332-0.981c-0.28-0.338-0.643-0.508-1.089-0.508c-0.404,0-0.743,0.135-1.018,0.405
		S89.046,176.137,89.017,176.59z"/>
	<path fill="#231F20" d="M93.914,179.681v-5.186h0.791v0.737c0.381-0.57,0.931-0.854,1.65-0.854c0.312,0,0.6,0.056,0.862,0.168
		s0.458,0.26,0.588,0.442s0.221,0.399,0.273,0.649c0.033,0.163,0.049,0.448,0.049,0.854v3.188h-0.879v-3.154
		c0-0.358-0.034-0.626-0.103-0.803s-0.189-0.319-0.364-0.425s-0.378-0.159-0.613-0.159c-0.375,0-0.697,0.119-0.969,0.356
		s-0.408,0.688-0.408,1.353v2.832H93.914z"/>
	<path fill="#231F20" d="M102.859,179.041c-0.326,0.277-0.639,0.472-0.94,0.586s-0.624,0.171-0.969,0.171
		c-0.57,0-1.007-0.139-1.313-0.417s-0.459-0.634-0.459-1.067c0-0.254,0.058-0.486,0.173-0.696s0.267-0.378,0.454-0.505
		s0.398-0.223,0.632-0.288c0.172-0.045,0.433-0.089,0.781-0.132c0.709-0.084,1.232-0.186,1.567-0.303
		c0.003-0.121,0.005-0.197,0.005-0.229c0-0.358-0.083-0.61-0.249-0.757c-0.225-0.199-0.558-0.298-1.001-0.298
		c-0.414,0-0.719,0.072-0.916,0.217s-0.343,0.401-0.437,0.769l-0.859-0.117c0.078-0.368,0.207-0.665,0.386-0.891
		s0.438-0.4,0.776-0.522s0.731-0.183,1.177-0.183c0.443,0,0.802,0.052,1.079,0.156s0.48,0.235,0.61,0.393s0.221,0.357,0.273,0.598
		c0.029,0.15,0.044,0.42,0.044,0.811v1.172c0,0.817,0.019,1.334,0.056,1.55s0.111,0.424,0.222,0.623h-0.918
		C102.944,179.499,102.885,179.285,102.859,179.041z M102.786,177.078c-0.319,0.13-0.797,0.241-1.436,0.332
		c-0.361,0.052-0.617,0.111-0.767,0.176s-0.265,0.16-0.347,0.286s-0.122,0.265-0.122,0.417c0,0.234,0.089,0.43,0.266,0.586
		s0.437,0.234,0.779,0.234c0.338,0,0.64-0.074,0.903-0.222s0.458-0.351,0.581-0.608c0.094-0.199,0.142-0.492,0.142-0.879V177.078z"
		/>
	<path fill="#231F20" d="M105.037,179.681v-5.186h0.786v0.728c0.163-0.254,0.379-0.458,0.649-0.613s0.578-0.232,0.923-0.232
		c0.384,0,0.699,0.08,0.945,0.239s0.419,0.382,0.52,0.669c0.41-0.605,0.944-0.908,1.602-0.908c0.514,0,0.91,0.143,1.187,0.427
		s0.415,0.724,0.415,1.316v3.56h-0.874v-3.267c0-0.352-0.028-0.604-0.085-0.759s-0.16-0.279-0.31-0.374s-0.326-0.142-0.527-0.142
		c-0.365,0-0.667,0.121-0.908,0.364s-0.361,0.631-0.361,1.165v3.013h-0.879v-3.369c0-0.391-0.072-0.684-0.215-0.879
		s-0.377-0.293-0.703-0.293c-0.248,0-0.476,0.065-0.686,0.195s-0.362,0.321-0.457,0.571s-0.142,0.612-0.142,1.084v2.69H105.037z"/>
	<path fill="#231F20" d="M116.917,178.011l0.908,0.112c-0.143,0.531-0.409,0.942-0.796,1.235s-0.882,0.439-1.484,0.439
		c-0.758,0-1.36-0.233-1.804-0.701s-0.667-1.122-0.667-1.965c0-0.873,0.225-1.549,0.674-2.031s1.032-0.723,1.748-0.723
		c0.693,0,1.26,0.236,1.699,0.708s0.659,1.136,0.659,1.992c0,0.052-0.001,0.13-0.005,0.234h-3.867
		c0.033,0.57,0.194,1.006,0.483,1.309s0.651,0.454,1.084,0.454c0.322,0,0.597-0.084,0.825-0.254S116.784,178.382,116.917,178.011z
		 M114.031,176.59h2.896c-0.039-0.436-0.15-0.763-0.332-0.981c-0.28-0.338-0.643-0.508-1.089-0.508
		c-0.404,0-0.743,0.135-1.018,0.405S114.061,176.137,114.031,176.59z"/>
</g>
<g>
	<path fill="#231F20" d="M75.819,190.347v-7.158h3.174c0.638,0,1.123,0.064,1.455,0.193s0.597,0.355,0.796,0.681
		s0.298,0.685,0.298,1.079c0,0.508-0.165,0.936-0.493,1.284s-0.836,0.57-1.523,0.664c0.25,0.121,0.441,0.239,0.571,0.356
		c0.277,0.254,0.539,0.571,0.786,0.952l1.245,1.948h-1.191l-0.947-1.489c-0.277-0.43-0.504-0.758-0.684-0.986
		s-0.339-0.387-0.481-0.479s-0.286-0.155-0.432-0.19c-0.107-0.023-0.283-0.034-0.527-0.034h-1.099v3.179H75.819z M76.767,186.348
		h2.036c0.433,0,0.771-0.045,1.016-0.134s0.43-0.233,0.557-0.43s0.19-0.411,0.19-0.642c0-0.338-0.123-0.617-0.369-0.835
		s-0.634-0.327-1.165-0.327h-2.266V186.348z"/>
	<path fill="#231F20" d="M86.464,188.677l0.908,0.112c-0.143,0.531-0.409,0.942-0.796,1.235s-0.882,0.439-1.484,0.439
		c-0.758,0-1.36-0.233-1.804-0.701s-0.667-1.122-0.667-1.965c0-0.873,0.225-1.549,0.674-2.031s1.032-0.723,1.748-0.723
		c0.693,0,1.26,0.236,1.699,0.708s0.659,1.136,0.659,1.992c0,0.052-0.001,0.13-0.005,0.234h-3.867
		c0.033,0.57,0.194,1.006,0.483,1.309s0.651,0.454,1.084,0.454c0.322,0,0.597-0.084,0.825-0.254S86.331,189.048,86.464,188.677z
		 M83.578,187.256h2.896c-0.039-0.436-0.15-0.763-0.332-0.981c-0.28-0.338-0.643-0.508-1.089-0.508
		c-0.404,0-0.743,0.135-1.018,0.405S83.607,186.804,83.578,187.256z"/>
	<path fill="#231F20" d="M88.314,190.777l0.854,0.127c0.036,0.264,0.135,0.456,0.298,0.576c0.218,0.163,0.516,0.244,0.894,0.244
		c0.407,0,0.721-0.082,0.942-0.244s0.371-0.391,0.449-0.684c0.045-0.179,0.067-0.555,0.063-1.128
		c-0.384,0.453-0.863,0.679-1.436,0.679c-0.713,0-1.265-0.257-1.655-0.771s-0.586-1.131-0.586-1.851c0-0.495,0.089-0.951,0.269-1.37
		s0.438-0.741,0.779-0.969s0.74-0.342,1.199-0.342c0.612,0,1.117,0.248,1.514,0.742v-0.625h0.811v4.482
		c0,0.807-0.082,1.379-0.247,1.716s-0.425,0.603-0.781,0.798s-0.795,0.293-1.316,0.293c-0.619,0-1.118-0.139-1.499-0.417
		S88.301,191.337,88.314,190.777z M89.042,187.662c0,0.68,0.135,1.177,0.405,1.489s0.609,0.469,1.016,0.469
		c0.404,0,0.742-0.155,1.016-0.466s0.41-0.798,0.41-1.462c0-0.635-0.141-1.113-0.422-1.436s-0.621-0.483-1.018-0.483
		c-0.391,0-0.723,0.159-0.996,0.476S89.042,187.037,89.042,187.662z"/>
	<path fill="#231F20" d="M94.042,184.2v-1.011h0.879v1.011H94.042z M94.042,190.347v-5.186h0.879v5.186H94.042z"/>
	<path fill="#231F20" d="M95.907,188.799l0.869-0.137c0.049,0.348,0.185,0.615,0.408,0.801s0.535,0.278,0.935,0.278
		c0.404,0,0.703-0.082,0.898-0.247s0.293-0.357,0.293-0.579c0-0.199-0.086-0.355-0.259-0.469c-0.121-0.078-0.42-0.177-0.898-0.298
		c-0.645-0.163-1.091-0.304-1.34-0.422s-0.438-0.283-0.566-0.493s-0.193-0.442-0.193-0.696c0-0.231,0.053-0.445,0.159-0.642
		s0.25-0.36,0.432-0.491c0.137-0.101,0.323-0.187,0.559-0.256s0.489-0.105,0.759-0.105c0.407,0,0.764,0.059,1.072,0.176
		s0.535,0.276,0.681,0.476s0.248,0.468,0.303,0.803l-0.859,0.117c-0.039-0.267-0.152-0.475-0.339-0.625s-0.452-0.225-0.793-0.225
		c-0.404,0-0.692,0.067-0.864,0.2s-0.259,0.29-0.259,0.469c0,0.114,0.036,0.216,0.107,0.308c0.072,0.094,0.184,0.172,0.337,0.234
		c0.088,0.033,0.347,0.107,0.776,0.225c0.622,0.166,1.056,0.302,1.301,0.408s0.438,0.26,0.579,0.461s0.21,0.453,0.21,0.752
		c0,0.293-0.085,0.569-0.256,0.828s-0.417,0.459-0.74,0.601s-0.687,0.212-1.094,0.212c-0.674,0-1.188-0.14-1.541-0.42
		S96.005,189.35,95.907,188.799z"/>
	<path fill="#231F20" d="M103.178,189.561l0.127,0.776c-0.248,0.052-0.469,0.078-0.664,0.078c-0.319,0-0.566-0.05-0.742-0.151
		s-0.299-0.233-0.371-0.398s-0.107-0.51-0.107-1.038v-2.983h-0.645v-0.684h0.645v-1.284l0.874-0.527v1.812h0.884v0.684h-0.884v3.032
		c0,0.25,0.016,0.412,0.046,0.483s0.082,0.128,0.151,0.171s0.17,0.063,0.3,0.063C102.89,189.595,103.018,189.584,103.178,189.561z"
		/>
	<path fill="#231F20" d="M107.587,188.677l0.908,0.112c-0.143,0.531-0.409,0.942-0.796,1.235s-0.882,0.439-1.484,0.439
		c-0.758,0-1.36-0.233-1.804-0.701s-0.667-1.122-0.667-1.965c0-0.873,0.225-1.549,0.674-2.031s1.032-0.723,1.748-0.723
		c0.693,0,1.26,0.236,1.699,0.708s0.659,1.136,0.659,1.992c0,0.052-0.001,0.13-0.005,0.234h-3.867
		c0.033,0.57,0.194,1.006,0.483,1.309s0.651,0.454,1.084,0.454c0.322,0,0.597-0.084,0.825-0.254S107.454,189.048,107.587,188.677z
		 M104.701,187.256h2.896c-0.039-0.436-0.15-0.763-0.332-0.981c-0.28-0.338-0.643-0.508-1.089-0.508
		c-0.404,0-0.743,0.135-1.018,0.405S104.73,186.804,104.701,187.256z"/>
	<path fill="#231F20" d="M109.589,190.347v-5.186h0.791v0.786c0.202-0.368,0.388-0.61,0.559-0.728s0.359-0.176,0.564-0.176
		c0.296,0,0.597,0.094,0.903,0.283l-0.303,0.815c-0.215-0.127-0.43-0.19-0.645-0.19c-0.192,0-0.365,0.058-0.518,0.173
		s-0.262,0.276-0.327,0.481c-0.098,0.312-0.146,0.654-0.146,1.025v2.715H109.589z"/>
	<path fill="#231F20" d="M112.577,188.799l0.869-0.137c0.049,0.348,0.185,0.615,0.408,0.801s0.535,0.278,0.935,0.278
		c0.404,0,0.703-0.082,0.898-0.247s0.293-0.357,0.293-0.579c0-0.199-0.086-0.355-0.259-0.469c-0.121-0.078-0.42-0.177-0.898-0.298
		c-0.645-0.163-1.091-0.304-1.34-0.422s-0.438-0.283-0.566-0.493s-0.193-0.442-0.193-0.696c0-0.231,0.053-0.445,0.159-0.642
		s0.25-0.36,0.432-0.491c0.137-0.101,0.323-0.187,0.559-0.256s0.489-0.105,0.759-0.105c0.407,0,0.764,0.059,1.072,0.176
		s0.535,0.276,0.681,0.476s0.248,0.468,0.303,0.803l-0.859,0.117c-0.039-0.267-0.152-0.475-0.339-0.625s-0.452-0.225-0.793-0.225
		c-0.404,0-0.692,0.067-0.864,0.2s-0.259,0.29-0.259,0.469c0,0.114,0.036,0.216,0.107,0.308c0.072,0.094,0.184,0.172,0.337,0.234
		c0.088,0.033,0.347,0.107,0.776,0.225c0.622,0.166,1.056,0.302,1.301,0.408s0.438,0.26,0.579,0.461s0.21,0.453,0.21,0.752
		c0,0.293-0.085,0.569-0.256,0.828s-0.417,0.459-0.74,0.601s-0.687,0.212-1.094,0.212c-0.674,0-1.188-0.14-1.541-0.42
		S112.675,189.35,112.577,188.799z"/>
</g>
<rect x="58.833" y="140.5" fill="#FFFFFF" stroke="#231F20" width="8.211" height="58.028"/>
<rect x="196.833" y="140.5" fill="#FFFFFF" stroke="#231F20" width="8.211" height="58.028"/>
<rect x="188.833" y="140.5" fill="#FFFFFF" stroke="#231F20" width="8.211" height="58.028"/>
<rect x="180.833" y="140.5" fill="#FFFFFF" stroke="#231F20" width="8.211" height="58.028"/>
<rect x="173.167" y="140.5" fill="#FFFFFF" stroke="#231F20" width="8.211" height="58.028"/>
<rect x="165.167" y="140.5" fill="#FFFFFF" stroke="#231F20" width="8.211" height="58.028"/>
<rect x="157.167" y="140.5" fill="#FFFFFF" stroke="#231F20" width="8.211" height="58.028"/>
<rect x="149.834" y="140.5" fill="#FFFFFF" stroke="#231F20" width="8.211" height="58.028"/>
<rect x="141.834" y="140.5" fill="#FFFFFF" stroke="#231F20" width="8.211" height="58.028"/>
<rect x="133.834" y="140.5" fill="#FFFFFF" stroke="#231F20" width="8.211" height="58.028"/>
<rect x="297.516" y="274.167" fill="#FFFFFF" stroke="#231F20" width="8.211" height="58.028"/>
<g>
	<line fill="#231F20" stroke="#231F20" x1="307.166" y1="302.484" x2="361.168" y2="302.484"/>
	<polygon fill="#231F20" points="368.229,302.484 358.277,306.549 360.639,302.484 358.277,298.419 	"/>
</g>
<rect x="369.85" y="274.167" fill="#FFFFFF" stroke="#231F20" width="8.211" height="58.028"/>
<g>
	<line fill="#231F20" stroke="#231F20" x1="379.5" y1="302.484" x2="433.502" y2="302.484"/>
	<polygon fill="#231F20" points="440.562,302.484 430.611,306.549 432.973,302.484 430.611,298.419 	"/>
</g>
<rect x="441.85" y="274.167" fill="#FFFFFF" stroke="#231F20" width="8.211" height="58.028"/>
<g>
	<line fill="#231F20" stroke="#231F20" x1="450.834" y1="302.484" x2="504.836" y2="302.484"/>
	<polygon fill="#231F20" points="511.896,302.484 501.945,306.549 504.307,302.484 501.945,298.419 	"/>
</g>
<rect x="513.184" y="274.167" fill="#FFFFFF" stroke="#231F20" width="8.211" height="58.028"/>
<g>
	<line fill="#231F20" stroke="#231F20" x1="277.5" y1="18.817" x2="288.167" y2="18.817"/>
	<polygon fill="#231F20" points="295.229,18.817 285.278,22.882 287.64,18.817 285.278,14.753 	"/>
</g>
<g>
	<line fill="#231F20" stroke="#231F20" x1="277.5" y1="223.817" x2="288.167" y2="223.817"/>
	<polygon fill="#231F20" points="295.229,223.817 285.278,227.882 287.64,223.817 285.278,219.753 	"/>
</g>
<g>
	<line fill="#231F20" stroke="#231F20" x1="277.5" y1="86.483" x2="288.167" y2="86.483"/>
	<polygon fill="#231F20" points="295.229,86.483 285.278,90.548 287.64,86.483 285.278,82.419 	"/>
</g>
<g>
	<line fill="#231F20" stroke="#231F20" x1="277.5" y1="293.818" x2="288.167" y2="293.818"/>
	<polygon fill="#231F20" points="295.229,293.818 285.278,297.882 287.64,293.818 285.278,289.753 	"/>
</g>
<line fill="none" stroke="#231F20" x1="277.5" y1="18.817" x2="277.5" y2="293.152"/>
<line fill="none" stroke="#231F20" x1="540.834" y1="28.817" x2="540.834" y2="303.152"/>
<g>
	<line fill="#231F20" stroke="#231F20" x1="267.5" y1="28.817" x2="288.167" y2="28.817"/>
	<polygon fill="#231F20" points="295.229,28.817 285.278,32.882 287.64,28.817 285.278,24.753 	"/>
</g>
<g>
	<line fill="#231F20" stroke="#231F20" x1="267.5" y1="233.817" x2="288.167" y2="233.817"/>
	<polygon fill="#231F20" points="295.229,233.817 285.278,237.882 287.64,233.817 285.278,229.753 	"/>
</g>
<g>
	<line fill="#231F20" stroke="#231F20" x1="267.5" y1="96.483" x2="288.167" y2="96.483"/>
	<polygon fill="#231F20" points="295.229,96.483 285.278,100.548 287.64,96.483 285.278,92.419 	"/>
</g>
<g>
	<line fill="#231F20" stroke="#231F20" x1="267.5" y1="303.818" x2="288.167" y2="303.818"/>
	<polygon fill="#231F20" points="295.229,303.818 285.278,307.882 287.64,303.818 285.278,299.753 	"/>
</g>
<line fill="none" stroke="#231F20" x1="267.5" y1="28.817" x2="267.5" y2="303.152"/>
<g>
	<line fill="#231F20" stroke="#231F20" x1="258.833" y1="38.817" x2="288.5" y2="38.817"/>
	<polygon fill="#231F20" points="295.561,38.817 285.611,42.882 287.973,38.817 285.611,34.753 	"/>
</g>
<g>
	<line fill="#231F20" stroke="#231F20" x1="258.833" y1="243.817" x2="288.5" y2="243.817"/>
	<polygon fill="#231F20" points="295.561,243.817 285.611,247.882 287.973,243.817 285.611,239.753 	"/>
</g>
<g>
	<line fill="#231F20" stroke="#231F20" x1="258.833" y1="106.483" x2="288.5" y2="106.483"/>
	<polygon fill="#231F20" points="295.561,106.483 285.611,110.548 287.973,106.483 285.611,102.419 	"/>
</g>
<rect x="297.516" y="135.833" fill="#FFFFFF" stroke="#231F20" width="8.211" height="58.028"/>
<g>
	<line fill="#231F20" stroke="#231F20" x1="307.166" y1="164.151" x2="361.168" y2="164.151"/>
	<polygon fill="#231F20" points="368.229,164.151 358.277,168.216 360.639,164.151 358.277,160.086 	"/>
</g>
<rect x="369.85" y="135.833" fill="#FFFFFF" stroke="#231F20" width="8.211" height="58.028"/>
<g>
	<line fill="#231F20" stroke="#231F20" x1="379.5" y1="164.151" x2="433.502" y2="164.151"/>
	<polygon fill="#231F20" points="440.562,164.151 430.611,168.216 432.973,164.151 430.611,160.086 	"/>
</g>
<rect x="441.85" y="135.833" fill="#FFFFFF" stroke="#231F20" width="8.211" height="58.028"/>
<g>
	<line fill="#231F20" stroke="#231F20" x1="450.834" y1="164.151" x2="504.835" y2="164.151"/>
	<polygon fill="#231F20" points="511.896,164.151 501.944,168.216 504.306,164.151 501.944,160.086 	"/>
</g>
<g>
	<line fill="#231F20" stroke="#231F20" x1="522.167" y1="164.151" x2="532.168" y2="164.151"/>
	<polygon fill="#231F20" points="539.229,164.151 529.277,168.216 531.639,164.151 529.277,160.086 	"/>
</g>
<rect x="513.183" y="135.833" fill="#FFFFFF" stroke="#231F20" width="8.211" height="58.028"/>
<g>
	<line fill="#231F20" stroke="#231F20" x1="277.5" y1="154.483" x2="288.167" y2="154.483"/>
	<polygon fill="#231F20" points="295.229,154.483 285.278,158.548 287.64,154.483 285.278,150.419 	"/>
</g>
<g>
	<line fill="#231F20" stroke="#231F20" x1="267.5" y1="164.483" x2="288.167" y2="164.483"/>
	<polygon fill="#231F20" points="295.229,164.483 285.278,168.548 287.64,164.483 285.278,160.419 	"/>
</g>
<g>
	<line fill="#231F20" stroke="#231F20" x1="258.833" y1="174.483" x2="288.5" y2="174.483"/>
	<polygon fill="#231F20" points="295.561,174.483 285.611,178.548 287.973,174.483 285.611,170.419 	"/>
</g>
<g>
	<line fill="#231F20" stroke="#231F20" x1="258.833" y1="313.818" x2="288.5" y2="313.818"/>
	<polygon fill="#231F20" points="295.561,313.818 285.611,317.882 287.973,313.818 285.611,309.753 	"/>
</g>
<line fill="none" stroke="#231F20" x1="258.833" y1="38.817" x2="258.833" y2="313.152"/>
<line fill="#231F20" stroke="#231F20" x1="205.5" y1="139.734" x2="205.5" y2="198.984"/>
<g>
	<path fill="#231F20" d="M409.441,49.014v-7.158h5.176V42.7h-4.229v2.192h3.96v0.84h-3.96v2.437h4.395v0.845H409.441z"/>
	<path fill="#231F20" d="M415.394,49.014l1.895-2.695l-1.753-2.49h1.099l0.796,1.216c0.149,0.231,0.271,0.425,0.361,0.581
		c0.144-0.215,0.275-0.405,0.396-0.571l0.874-1.226h1.05l-1.792,2.441l1.929,2.744h-1.079l-1.064-1.611l-0.283-0.435l-1.362,2.046
		H415.394z"/>
	<path fill="#231F20" d="M424.529,47.344l0.908,0.112c-0.144,0.531-0.408,0.942-0.796,1.235s-0.882,0.439-1.484,0.439
		c-0.759,0-1.36-0.233-1.804-0.701c-0.445-0.467-0.667-1.122-0.667-1.965c0-0.873,0.225-1.549,0.674-2.031s1.032-0.723,1.748-0.723
		c0.693,0,1.26,0.236,1.699,0.708s0.659,1.136,0.659,1.992c0,0.052-0.002,0.13-0.005,0.234h-3.867
		c0.032,0.57,0.193,1.006,0.483,1.309s0.651,0.454,1.084,0.454c0.322,0,0.598-0.084,0.825-0.254S424.396,47.715,424.529,47.344z
		 M421.644,45.923h2.896c-0.039-0.436-0.149-0.763-0.332-0.981c-0.28-0.338-0.643-0.508-1.089-0.508
		c-0.403,0-0.743,0.135-1.019,0.405C421.825,45.109,421.673,45.47,421.644,45.923z"/>
	<path fill="#231F20" d="M429.925,47.114l0.864,0.112c-0.095,0.596-0.336,1.062-0.725,1.399c-0.39,0.337-0.867,0.505-1.434,0.505
		c-0.71,0-1.28-0.232-1.711-0.696c-0.432-0.464-0.647-1.129-0.647-1.995c0-0.56,0.093-1.05,0.278-1.47s0.468-0.735,0.848-0.945
		c0.379-0.21,0.791-0.315,1.237-0.315c0.563,0,1.023,0.143,1.382,0.427s0.588,0.689,0.688,1.213l-0.854,0.132
		c-0.081-0.348-0.226-0.61-0.432-0.786c-0.207-0.176-0.457-0.264-0.75-0.264c-0.442,0-0.803,0.159-1.079,0.476
		s-0.415,0.819-0.415,1.506c0,0.697,0.134,1.203,0.4,1.519s0.615,0.474,1.045,0.474c0.345,0,0.633-0.106,0.864-0.317
		S429.863,47.554,429.925,47.114z"/>
	<path fill="#231F20" d="M434.939,49.014v-0.762c-0.403,0.586-0.952,0.879-1.646,0.879c-0.306,0-0.592-0.059-0.856-0.176
		c-0.266-0.117-0.463-0.265-0.592-0.442c-0.128-0.177-0.219-0.395-0.271-0.652c-0.036-0.172-0.054-0.446-0.054-0.82v-3.213h0.879
		v2.876c0,0.459,0.018,0.768,0.054,0.928c0.056,0.231,0.173,0.413,0.352,0.544s0.4,0.198,0.664,0.198s0.511-0.067,0.742-0.203
		s0.395-0.319,0.491-0.552c0.096-0.233,0.144-0.57,0.144-1.013v-2.778h0.879v5.186H434.939z"/>
	<path fill="#231F20" d="M439.021,48.228l0.127,0.776c-0.247,0.052-0.469,0.078-0.664,0.078c-0.319,0-0.566-0.05-0.742-0.151
		s-0.3-0.233-0.371-0.398s-0.107-0.51-0.107-1.038v-2.983h-0.645v-0.684h0.645v-1.284l0.874-0.527v1.812h0.884v0.684h-0.884v3.032
		c0,0.25,0.016,0.412,0.046,0.483c0.031,0.072,0.082,0.128,0.152,0.171c0.069,0.042,0.17,0.063,0.3,0.063
		C438.733,48.262,438.862,48.25,439.021,48.228z"/>
	<path fill="#231F20" d="M439.886,42.866v-1.011h0.879v1.011H439.886z M439.886,49.014v-5.186h0.879v5.186H439.886z"/>
	<path fill="#231F20" d="M441.775,46.421c0-0.96,0.267-1.671,0.801-2.134c0.446-0.384,0.989-0.576,1.631-0.576
		c0.713,0,1.296,0.233,1.748,0.701s0.679,1.112,0.679,1.936c0,0.667-0.101,1.192-0.3,1.575c-0.201,0.382-0.492,0.68-0.875,0.891
		c-0.382,0.211-0.8,0.317-1.252,0.317c-0.726,0-1.312-0.233-1.76-0.698C441.999,47.967,441.775,47.296,441.775,46.421z
		 M442.679,46.421c0,0.664,0.145,1.161,0.435,1.492s0.654,0.496,1.094,0.496c0.437,0,0.799-0.166,1.089-0.498
		s0.435-0.838,0.435-1.519c0-0.641-0.146-1.127-0.438-1.458c-0.291-0.331-0.653-0.496-1.086-0.496c-0.439,0-0.804,0.165-1.094,0.493
		S442.679,45.757,442.679,46.421z"/>
	<path fill="#231F20" d="M447.664,49.014v-5.186h0.791v0.737c0.381-0.57,0.931-0.854,1.65-0.854c0.312,0,0.6,0.056,0.861,0.168
		c0.263,0.112,0.459,0.26,0.589,0.442s0.222,0.399,0.273,0.649c0.032,0.163,0.049,0.448,0.049,0.854v3.188h-0.879v-3.154
		c0-0.358-0.034-0.626-0.103-0.803s-0.189-0.319-0.363-0.425c-0.175-0.106-0.379-0.159-0.613-0.159
		c-0.374,0-0.697,0.119-0.969,0.356c-0.272,0.238-0.408,0.688-0.408,1.353v2.832H447.664z"/>
	<path fill="#231F20" d="M456.131,49.014v-7.158h3.174c0.638,0,1.123,0.064,1.455,0.193s0.598,0.355,0.796,0.681
		s0.298,0.685,0.298,1.079c0,0.508-0.164,0.936-0.493,1.284s-0.837,0.57-1.523,0.664c0.251,0.121,0.441,0.239,0.571,0.356
		c0.276,0.254,0.539,0.571,0.786,0.952l1.245,1.948h-1.191l-0.947-1.489c-0.276-0.43-0.505-0.758-0.684-0.986
		s-0.34-0.387-0.48-0.479c-0.143-0.091-0.286-0.155-0.433-0.19c-0.107-0.023-0.283-0.034-0.527-0.034h-1.099v3.179H456.131z
		 M457.078,45.015h2.036c0.433,0,0.771-0.045,1.016-0.134s0.43-0.233,0.557-0.43s0.19-0.411,0.19-0.642
		c0-0.338-0.123-0.617-0.369-0.835c-0.245-0.218-0.634-0.327-1.164-0.327h-2.266V45.015z"/>
	<path fill="#231F20" d="M466.775,47.344l0.908,0.112c-0.144,0.531-0.408,0.942-0.796,1.235s-0.882,0.439-1.484,0.439
		c-0.759,0-1.36-0.233-1.804-0.701c-0.445-0.467-0.667-1.122-0.667-1.965c0-0.873,0.225-1.549,0.674-2.031s1.032-0.723,1.748-0.723
		c0.693,0,1.26,0.236,1.699,0.708s0.659,1.136,0.659,1.992c0,0.052-0.002,0.13-0.005,0.234h-3.867
		c0.032,0.57,0.193,1.006,0.483,1.309s0.651,0.454,1.084,0.454c0.322,0,0.598-0.084,0.825-0.254S466.642,47.715,466.775,47.344z
		 M463.89,45.923h2.896c-0.039-0.436-0.149-0.763-0.332-0.981c-0.28-0.338-0.643-0.508-1.089-0.508
		c-0.403,0-0.743,0.135-1.019,0.405C464.071,45.109,463.919,45.47,463.89,45.923z"/>
	<path fill="#231F20" d="M468.436,47.466l0.869-0.137c0.049,0.348,0.185,0.615,0.408,0.801c0.223,0.186,0.534,0.278,0.935,0.278
		c0.403,0,0.703-0.082,0.898-0.247s0.293-0.357,0.293-0.579c0-0.199-0.086-0.355-0.259-0.469c-0.12-0.078-0.42-0.177-0.898-0.298
		c-0.645-0.163-1.092-0.304-1.34-0.422c-0.25-0.119-0.438-0.283-0.566-0.493c-0.129-0.21-0.193-0.442-0.193-0.696
		c0-0.231,0.053-0.445,0.158-0.642c0.106-0.197,0.25-0.36,0.433-0.491c0.137-0.101,0.323-0.187,0.56-0.256
		c0.235-0.07,0.488-0.105,0.759-0.105c0.407,0,0.765,0.059,1.071,0.176c0.309,0.117,0.535,0.276,0.682,0.476
		s0.247,0.468,0.303,0.803l-0.859,0.117c-0.039-0.267-0.152-0.475-0.34-0.625c-0.187-0.15-0.451-0.225-0.793-0.225
		c-0.403,0-0.691,0.067-0.864,0.2s-0.259,0.29-0.259,0.469c0,0.114,0.036,0.216,0.107,0.308c0.071,0.094,0.184,0.172,0.337,0.234
		c0.088,0.033,0.347,0.107,0.776,0.225c0.622,0.166,1.056,0.302,1.301,0.408c0.246,0.106,0.439,0.26,0.579,0.461
		s0.21,0.453,0.21,0.752c0,0.293-0.086,0.569-0.256,0.828c-0.172,0.259-0.418,0.459-0.74,0.601s-0.687,0.212-1.094,0.212
		c-0.674,0-1.188-0.14-1.541-0.42C468.759,48.431,468.533,48.016,468.436,47.466z"/>
	<path fill="#231F20" d="M473.46,46.421c0-0.96,0.267-1.671,0.801-2.134c0.446-0.384,0.989-0.576,1.631-0.576
		c0.713,0,1.296,0.233,1.748,0.701s0.679,1.112,0.679,1.936c0,0.667-0.1,1.192-0.301,1.575c-0.199,0.382-0.491,0.68-0.873,0.891
		c-0.383,0.211-0.801,0.317-1.253,0.317c-0.726,0-1.312-0.233-1.761-0.698C473.684,47.967,473.46,47.296,473.46,46.421z
		 M474.363,46.421c0,0.664,0.145,1.161,0.435,1.492s0.654,0.496,1.094,0.496c0.437,0,0.799-0.166,1.089-0.498
		s0.435-0.838,0.435-1.519c0-0.641-0.146-1.127-0.437-1.458c-0.292-0.331-0.654-0.496-1.087-0.496c-0.439,0-0.804,0.165-1.094,0.493
		S474.363,45.757,474.363,46.421z"/>
	<path fill="#231F20" d="M482.747,49.014v-0.762c-0.403,0.586-0.952,0.879-1.646,0.879c-0.306,0-0.592-0.059-0.857-0.176
		c-0.265-0.117-0.462-0.265-0.59-0.442c-0.129-0.177-0.22-0.395-0.271-0.652c-0.036-0.172-0.054-0.446-0.054-0.82v-3.213h0.879
		v2.876c0,0.459,0.018,0.768,0.054,0.928c0.056,0.231,0.173,0.413,0.352,0.544s0.4,0.198,0.664,0.198s0.511-0.067,0.742-0.203
		s0.395-0.319,0.49-0.552c0.097-0.233,0.145-0.57,0.145-1.013v-2.778h0.879v5.186H482.747z"/>
	<path fill="#231F20" d="M484.9,49.014v-5.186h0.791v0.786c0.202-0.368,0.389-0.61,0.559-0.728c0.172-0.117,0.359-0.176,0.564-0.176
		c0.296,0,0.598,0.094,0.903,0.283l-0.303,0.815c-0.215-0.127-0.43-0.19-0.645-0.19c-0.192,0-0.364,0.058-0.518,0.173
		s-0.262,0.276-0.327,0.481c-0.098,0.312-0.146,0.654-0.146,1.025v2.715H484.9z"/>
	<path fill="#231F20" d="M491.624,47.114l0.864,0.112c-0.095,0.596-0.336,1.062-0.725,1.399c-0.39,0.337-0.867,0.505-1.434,0.505
		c-0.71,0-1.28-0.232-1.711-0.696c-0.432-0.464-0.647-1.129-0.647-1.995c0-0.56,0.093-1.05,0.278-1.47s0.468-0.735,0.848-0.945
		c0.379-0.21,0.791-0.315,1.237-0.315c0.563,0,1.023,0.143,1.382,0.427s0.588,0.689,0.688,1.213l-0.854,0.132
		c-0.081-0.348-0.226-0.61-0.432-0.786c-0.207-0.176-0.457-0.264-0.75-0.264c-0.442,0-0.803,0.159-1.079,0.476
		s-0.415,0.819-0.415,1.506c0,0.697,0.134,1.203,0.4,1.519s0.615,0.474,1.045,0.474c0.345,0,0.633-0.106,0.864-0.317
		S491.562,47.554,491.624,47.114z"/>
	<path fill="#231F20" d="M496.79,47.344l0.908,0.112c-0.144,0.531-0.408,0.942-0.796,1.235s-0.882,0.439-1.484,0.439
		c-0.759,0-1.359-0.233-1.805-0.701c-0.443-0.467-0.666-1.122-0.666-1.965c0-0.873,0.225-1.549,0.674-2.031s1.032-0.723,1.748-0.723
		c0.693,0,1.26,0.236,1.699,0.708s0.659,1.136,0.659,1.992c0,0.052-0.002,0.13-0.005,0.234h-3.867
		c0.032,0.57,0.193,1.006,0.483,1.309s0.651,0.454,1.084,0.454c0.322,0,0.598-0.084,0.825-0.254S496.656,47.715,496.79,47.344z
		 M493.904,45.923h2.896c-0.039-0.436-0.149-0.763-0.332-0.981c-0.28-0.338-0.643-0.508-1.089-0.508
		c-0.403,0-0.743,0.135-1.018,0.405C494.086,45.109,493.934,45.47,493.904,45.923z"/>
	<path fill="#231F20" d="M498.45,47.466l0.869-0.137c0.049,0.348,0.185,0.615,0.407,0.801c0.224,0.186,0.535,0.278,0.936,0.278
		c0.403,0,0.703-0.082,0.898-0.247s0.293-0.357,0.293-0.579c0-0.199-0.086-0.355-0.259-0.469c-0.12-0.078-0.42-0.177-0.898-0.298
		c-0.645-0.163-1.091-0.304-1.341-0.422c-0.248-0.119-0.438-0.283-0.566-0.493c-0.128-0.21-0.192-0.442-0.192-0.696
		c0-0.231,0.053-0.445,0.159-0.642c0.105-0.197,0.249-0.36,0.432-0.491c0.137-0.101,0.323-0.187,0.559-0.256
		c0.236-0.07,0.489-0.105,0.76-0.105c0.407,0,0.764,0.059,1.072,0.176c0.307,0.117,0.534,0.276,0.681,0.476s0.247,0.468,0.303,0.803
		l-0.859,0.117c-0.039-0.267-0.152-0.475-0.339-0.625c-0.188-0.15-0.452-0.225-0.794-0.225c-0.403,0-0.691,0.067-0.864,0.2
		s-0.259,0.29-0.259,0.469c0,0.114,0.036,0.216,0.107,0.308c0.071,0.094,0.184,0.172,0.337,0.234
		c0.088,0.033,0.347,0.107,0.776,0.225c0.622,0.166,1.056,0.302,1.302,0.408c0.245,0.106,0.438,0.26,0.578,0.461
		s0.21,0.453,0.21,0.752c0,0.293-0.085,0.569-0.257,0.828c-0.17,0.259-0.417,0.459-0.739,0.601s-0.687,0.212-1.094,0.212
		c-0.674,0-1.188-0.14-1.54-0.42C498.773,48.431,498.548,48.016,498.45,47.466z"/>
</g>
<rect x="238.5" y="119.15" fill="#FFFFFF" width="48" height="26.667"/>
<g>
	<path fill="#231F20" d="M244.022,129.913v-7.158h1.426l1.694,5.068c0.156,0.472,0.27,0.825,0.342,1.06
		c0.082-0.26,0.208-0.643,0.381-1.147l1.714-4.98h1.274v7.158h-0.913v-5.991l-2.08,5.991h-0.854l-2.07-6.094v6.094H244.022z"/>
	<path fill="#231F20" d="M252.274,123.765v-1.011h0.879v1.011H252.274z M252.274,129.913v-5.186h0.879v5.186H252.274z"/>
	<path fill="#231F20" d="M257.875,128.013l0.864,0.112c-0.094,0.596-0.336,1.062-0.725,1.399s-0.867,0.505-1.433,0.505
		c-0.709,0-1.28-0.232-1.711-0.696s-0.647-1.129-0.647-1.995c0-0.56,0.093-1.05,0.278-1.47s0.468-0.735,0.847-0.945
		s0.792-0.315,1.238-0.315c0.563,0,1.024,0.143,1.382,0.427s0.587,0.689,0.688,1.213l-0.854,0.132
		c-0.082-0.348-0.226-0.61-0.432-0.786s-0.457-0.264-0.75-0.264c-0.443,0-0.802,0.159-1.079,0.476s-0.415,0.819-0.415,1.506
		c0,0.697,0.133,1.203,0.4,1.519s0.615,0.474,1.045,0.474c0.345,0,0.633-0.106,0.864-0.317S257.812,128.453,257.875,128.013z"/>
	<path fill="#231F20" d="M259.481,129.913v-5.186h0.791v0.786c0.202-0.368,0.388-0.61,0.559-0.728s0.359-0.176,0.564-0.176
		c0.296,0,0.597,0.094,0.903,0.283l-0.303,0.815c-0.215-0.127-0.43-0.19-0.645-0.19c-0.192,0-0.365,0.058-0.518,0.173
		s-0.262,0.276-0.327,0.481c-0.098,0.312-0.146,0.654-0.146,1.025v2.715H259.481z"/>
	<path fill="#231F20" d="M262.494,127.32c0-0.96,0.267-1.671,0.801-2.134c0.446-0.384,0.99-0.576,1.631-0.576
		c0.713,0,1.295,0.233,1.748,0.701s0.679,1.112,0.679,1.936c0,0.667-0.1,1.192-0.3,1.575s-0.492,0.68-0.874,0.891
		s-0.8,0.317-1.252,0.317c-0.726,0-1.312-0.233-1.76-0.698S262.494,128.195,262.494,127.32z M263.397,127.32
		c0,0.664,0.145,1.161,0.435,1.492s0.654,0.496,1.094,0.496c0.436,0,0.799-0.166,1.089-0.498s0.435-0.838,0.435-1.519
		c0-0.641-0.146-1.127-0.437-1.458s-0.653-0.496-1.086-0.496c-0.439,0-0.804,0.165-1.094,0.493S263.397,126.656,263.397,127.32z"/>
	<path fill="#231F20" d="M268.041,127.764v-0.884h2.7v0.884H268.041z"/>
	<path fill="#231F20" d="M271.537,126.426c0-1.188,0.319-2.118,0.957-2.791s1.461-1.008,2.471-1.008
		c0.661,0,1.256,0.158,1.787,0.474s0.935,0.756,1.213,1.321s0.417,1.205,0.417,1.921c0,0.726-0.146,1.375-0.439,1.948
		s-0.708,1.007-1.245,1.301s-1.117,0.442-1.738,0.442c-0.674,0-1.276-0.163-1.807-0.488s-0.933-0.77-1.206-1.333
		S271.537,127.055,271.537,126.426z M272.513,126.441c0,0.863,0.232,1.542,0.696,2.039s1.046,0.745,1.746,0.745
		c0.713,0,1.3-0.25,1.76-0.752s0.691-1.212,0.691-2.134c0-0.583-0.099-1.091-0.295-1.526s-0.485-0.771-0.864-1.011
		s-0.805-0.359-1.277-0.359c-0.67,0-1.248,0.23-1.731,0.691S272.513,125.363,272.513,126.441z"/>
	<path fill="#231F20" d="M279.491,131.9v-7.173h0.801v0.674c0.189-0.264,0.402-0.461,0.64-0.593s0.526-0.198,0.864-0.198
		c0.443,0,0.833,0.114,1.172,0.342s0.594,0.549,0.767,0.964s0.259,0.87,0.259,1.365c0,0.531-0.095,1.008-0.286,1.433
		s-0.467,0.75-0.83,0.977s-0.745,0.339-1.145,0.339c-0.293,0-0.556-0.062-0.789-0.186s-0.424-0.28-0.574-0.469v2.524H279.491z
		 M280.287,127.349c0,0.667,0.135,1.161,0.405,1.479s0.597,0.479,0.981,0.479c0.391,0,0.725-0.165,1.003-0.496
		s0.417-0.842,0.417-1.536c0-0.661-0.136-1.156-0.408-1.484s-0.597-0.493-0.974-0.493c-0.375,0-0.706,0.175-0.994,0.525
		S280.287,126.682,280.287,127.349z"/>
	<path fill="#231F20" d="M245.155,141.913v-7.158h2.466c0.557,0,0.981,0.034,1.274,0.103c0.41,0.094,0.76,0.265,1.05,0.513
		c0.377,0.319,0.66,0.727,0.847,1.223s0.281,1.063,0.281,1.702c0,0.543-0.063,1.025-0.19,1.445s-0.29,0.768-0.488,1.042
		s-0.416,0.492-0.652,0.649s-0.521,0.277-0.854,0.359s-0.717,0.122-1.15,0.122H245.155z M246.102,141.068h1.528
		c0.472,0,0.842-0.044,1.111-0.132s0.482-0.211,0.642-0.371c0.225-0.225,0.399-0.526,0.525-0.906s0.188-0.839,0.188-1.379
		c0-0.749-0.123-1.324-0.369-1.726s-0.544-0.671-0.896-0.808c-0.254-0.098-0.663-0.146-1.226-0.146h-1.504V141.068z"/>
	<path fill="#231F20" d="M252.269,135.765v-1.011h0.879v1.011H252.269z M252.269,141.913v-5.186h0.879v5.186H252.269z"/>
	<path fill="#231F20" d="M254.134,140.365l0.869-0.137c0.049,0.348,0.185,0.615,0.408,0.801s0.535,0.278,0.935,0.278
		c0.404,0,0.703-0.082,0.898-0.247s0.293-0.357,0.293-0.579c0-0.199-0.086-0.355-0.259-0.469c-0.121-0.078-0.42-0.177-0.898-0.298
		c-0.645-0.163-1.091-0.304-1.34-0.422s-0.438-0.283-0.566-0.493s-0.193-0.442-0.193-0.696c0-0.231,0.053-0.445,0.159-0.642
		s0.25-0.36,0.432-0.491c0.137-0.101,0.323-0.187,0.559-0.256s0.489-0.105,0.759-0.105c0.407,0,0.764,0.059,1.072,0.176
		s0.535,0.276,0.681,0.476s0.248,0.468,0.303,0.803l-0.859,0.117c-0.039-0.267-0.152-0.475-0.339-0.625s-0.452-0.225-0.793-0.225
		c-0.404,0-0.692,0.067-0.864,0.2s-0.259,0.29-0.259,0.469c0,0.114,0.036,0.216,0.107,0.308c0.072,0.094,0.184,0.172,0.337,0.234
		c0.088,0.033,0.347,0.107,0.776,0.225c0.622,0.166,1.056,0.302,1.301,0.408s0.438,0.26,0.579,0.461s0.21,0.453,0.21,0.752
		c0,0.293-0.085,0.569-0.256,0.828s-0.417,0.459-0.74,0.601s-0.687,0.212-1.094,0.212c-0.674,0-1.188-0.14-1.541-0.42
		S254.232,140.915,254.134,140.365z"/>
	<path fill="#231F20" d="M259.486,143.9v-7.173h0.801v0.674c0.189-0.264,0.402-0.461,0.64-0.593s0.526-0.198,0.864-0.198
		c0.443,0,0.833,0.114,1.172,0.342s0.594,0.549,0.767,0.964s0.259,0.87,0.259,1.365c0,0.531-0.095,1.008-0.286,1.433
		s-0.467,0.75-0.83,0.977s-0.745,0.339-1.145,0.339c-0.293,0-0.556-0.062-0.789-0.186s-0.424-0.28-0.574-0.469v2.524H259.486z
		 M260.282,139.349c0,0.667,0.135,1.161,0.405,1.479s0.597,0.479,0.981,0.479c0.391,0,0.725-0.165,1.003-0.496
		s0.417-0.842,0.417-1.536c0-0.661-0.136-1.156-0.408-1.484s-0.597-0.493-0.974-0.493c-0.375,0-0.706,0.175-0.994,0.525
		S260.282,138.682,260.282,139.349z"/>
	<path fill="#231F20" d="M268.431,141.273c-0.326,0.277-0.639,0.472-0.94,0.586s-0.624,0.171-0.969,0.171
		c-0.57,0-1.007-0.139-1.313-0.417s-0.459-0.634-0.459-1.067c0-0.254,0.058-0.486,0.173-0.696s0.267-0.378,0.454-0.505
		s0.398-0.223,0.632-0.288c0.172-0.045,0.433-0.089,0.781-0.132c0.709-0.084,1.232-0.186,1.567-0.303
		c0.003-0.121,0.005-0.197,0.005-0.229c0-0.358-0.083-0.61-0.249-0.757c-0.225-0.199-0.558-0.298-1.001-0.298
		c-0.414,0-0.719,0.072-0.916,0.217s-0.343,0.401-0.437,0.769l-0.859-0.117c0.078-0.368,0.207-0.665,0.386-0.891
		s0.438-0.4,0.776-0.522s0.731-0.183,1.177-0.183c0.443,0,0.802,0.052,1.079,0.156s0.48,0.235,0.61,0.393s0.221,0.357,0.273,0.598
		c0.029,0.15,0.044,0.42,0.044,0.811v1.172c0,0.817,0.019,1.334,0.056,1.55s0.111,0.424,0.222,0.623h-0.918
		C268.516,141.73,268.457,141.517,268.431,141.273z M268.358,139.31c-0.319,0.13-0.797,0.241-1.436,0.332
		c-0.361,0.052-0.617,0.111-0.767,0.176s-0.265,0.16-0.347,0.286s-0.122,0.265-0.122,0.417c0,0.234,0.089,0.43,0.266,0.586
		s0.437,0.234,0.779,0.234c0.338,0,0.64-0.074,0.903-0.222s0.458-0.351,0.581-0.608c0.094-0.199,0.142-0.492,0.142-0.879V139.31z"/>
	<path fill="#231F20" d="M272.528,141.126l0.127,0.776c-0.248,0.052-0.469,0.078-0.664,0.078c-0.319,0-0.566-0.05-0.742-0.151
		s-0.299-0.233-0.371-0.398s-0.107-0.51-0.107-1.038v-2.983h-0.645v-0.684h0.645v-1.284l0.874-0.527v1.812h0.884v0.684h-0.884v3.032
		c0,0.25,0.016,0.412,0.046,0.483s0.082,0.128,0.151,0.171s0.17,0.063,0.3,0.063C272.24,141.161,272.368,141.149,272.528,141.126z"
		/>
	<path fill="#231F20" d="M276.771,140.013l0.864,0.112c-0.094,0.596-0.336,1.062-0.725,1.399s-0.867,0.505-1.433,0.505
		c-0.709,0-1.28-0.232-1.711-0.696s-0.647-1.129-0.647-1.995c0-0.56,0.093-1.05,0.278-1.47s0.468-0.735,0.847-0.945
		s0.792-0.315,1.238-0.315c0.563,0,1.024,0.143,1.382,0.427s0.587,0.689,0.688,1.213l-0.854,0.132
		c-0.082-0.348-0.226-0.61-0.432-0.786s-0.457-0.264-0.75-0.264c-0.443,0-0.802,0.159-1.079,0.476s-0.415,0.819-0.415,1.506
		c0,0.697,0.133,1.203,0.4,1.519s0.615,0.474,1.045,0.474c0.345,0,0.633-0.106,0.864-0.317S276.709,140.453,276.771,140.013z"/>
	<path fill="#231F20" d="M278.387,141.913v-7.158h0.879v2.568c0.41-0.475,0.928-0.713,1.553-0.713c0.384,0,0.718,0.076,1.001,0.227
		s0.486,0.36,0.608,0.627s0.183,0.654,0.183,1.162v3.286h-0.879v-3.286c0-0.439-0.095-0.759-0.286-0.959s-0.46-0.3-0.808-0.3
		c-0.26,0-0.505,0.067-0.735,0.203s-0.393,0.318-0.491,0.549s-0.146,0.55-0.146,0.957v2.837H278.387z"/>
</g>
</svg>
